<svg width="104" height="22" viewBox="0 0 104 22" fill="none" xmlns="http://www.w3.org/2000/svg">
<path d="M1.625 10.6875C2.02083 9.6875 2.6875 8.79167 3.625 8C4.58333 7.1875 5.79167 6.77083 7.25 6.75H19C19.5833 6.75 20.0729 6.95833 20.4688 7.375C20.8854 7.77083 21.0938 8.26042 21.0938 8.84375C21.0938 9.42708 20.8854 9.92708 20.4688 10.3438C20.0729 10.7396 19.5833 10.9375 19 10.9375H7.125C6.72917 10.9375 6.38542 11.1042 6.09375 11.4375C5.80208 11.75 5.57292 12.125 5.40625 12.5625C5.26042 13 5.1875 13.4167 5.1875 13.8125V19.2812C5.0625 20.5312 4.375 21.2083 3.125 21.3125C2.54167 21.3125 2.03125 21.125 1.59375 20.75C1.17708 20.3542 0.96875 19.8646 0.96875 19.2812V13.8438H1C1 12.7604 1.20833 11.7083 1.625 10.6875ZM31.2337 20.9375C29.4004 20.875 28.015 20.4479 27.0775 19.6562C26.14 18.8438 25.4629 17.9375 25.0462 16.9375C24.6296 15.9167 24.4212 14.8854 24.4212 13.8438C24.4212 12.7604 24.6192 11.7188 25.015 10.7188C25.4317 9.69792 26.1087 8.79167 27.0462 8C28.0046 7.1875 29.2129 6.77083 30.6712 6.75H42.5462C43.1296 6.75 43.6192 6.94792 44.015 7.34375C44.4317 7.71875 44.64 8.17708 44.64 8.71875C44.64 9.28125 44.4317 9.76042 44.015 10.1562C43.6192 10.5312 43.1296 10.7188 42.5462 10.7188H30.8587C30.4004 10.7188 29.9942 10.875 29.64 11.1875C29.3067 11.5 29.0567 11.9062 28.89 12.4062C28.7442 12.9062 28.6712 13.3958 28.6712 13.875C28.6712 14.3958 28.7442 14.9062 28.89 15.4062C29.0567 15.9062 29.3067 16.3125 29.64 16.625C29.9942 16.9167 30.4004 17.0729 30.8587 17.0938H42.5462C43.1296 17.0938 43.6192 17.2812 44.015 17.6562C44.4317 18.0312 44.64 18.4792 44.64 19C44.64 19.5417 44.4317 20 44.015 20.375C43.6192 20.75 43.1296 20.9375 42.5462 20.9375H31.2337ZM44.265 13.7812C44.265 14.1771 44.0879 14.5208 43.7337 14.8125C43.4212 15.0833 43.0254 15.2188 42.5462 15.2188H32.3275C31.8483 15.2188 31.4421 15.0833 31.1087 14.8125C30.7754 14.5208 30.6087 14.1771 30.6087 13.7812C30.6087 13.4062 30.7754 13.0729 31.1087 12.7812C31.4421 12.5104 31.8483 12.375 32.3275 12.375H42.5462C43.0254 12.375 43.4317 12.5208 43.765 12.8125C44.0983 13.0833 44.265 13.4062 44.265 13.7812ZM53.8112 19.2812C52.7487 17.8438 51.6862 15.9583 50.6237 13.625L48.5925 9.25C48.4883 9.02083 48.4258 8.77083 48.405 8.5C48.3633 7.91667 48.5404 7.41667 48.9362 7C49.3321 6.58333 49.8529 6.375 50.4987 6.375C51.2071 6.375 51.7279 6.52083 52.0612 6.8125C52.4154 7.08333 52.6967 7.4375 52.905 7.875L54.3737 11.5C54.7487 12.3542 55.1133 13.1667 55.4675 13.9375C55.8425 14.6875 56.2592 15.375 56.7175 16C57.1967 16.625 57.7279 16.9583 58.3112 17C58.8737 16.9583 59.405 16.625 59.905 16C60.3425 15.375 60.7383 14.6875 61.0925 13.9375C61.4675 13.1667 61.8425 12.3542 62.2175 11.5L63.6862 7.875C63.8946 7.4375 64.1654 7.08333 64.4987 6.8125C64.8529 6.52083 65.3842 6.375 66.0925 6.375C66.7383 6.375 67.2592 6.58333 67.655 7C68.0508 7.41667 68.2279 7.91667 68.1862 8.5C68.1654 8.77083 68.1029 9.02083 67.9987 9.25L65.9675 13.625C64.905 15.9583 63.8425 17.8438 62.78 19.2812C61.7592 20.6979 60.2696 21.4167 58.3112 21.4375C56.3321 21.4167 54.8321 20.6979 53.8112 19.2812ZM74.4512 6.4375C75.0137 6.45833 75.4929 6.66667 75.8887 7.0625C76.2846 7.4375 76.4929 7.90625 76.5137 8.46875V19.2812C76.3887 20.5312 75.7012 21.2083 74.4512 21.3125C73.8679 21.3125 73.3575 21.125 72.92 20.75C72.5033 20.3542 72.295 19.8646 72.295 19.2812V8.46875C72.3158 7.88542 72.5346 7.40625 72.9512 7.03125C73.3679 6.63542 73.8679 6.4375 74.4512 6.4375ZM71.8262 2.375C71.8262 1.79167 72.0762 1.29167 72.5762 0.875C73.0762 0.458333 73.6804 0.25 74.3887 0.25C75.0971 0.25 75.7012 0.458333 76.2012 0.875C76.7012 1.29167 76.9512 1.79167 76.9512 2.375C76.9512 2.97917 76.7012 3.48958 76.2012 3.90625C75.7012 4.32292 75.0971 4.53125 74.3887 4.53125C73.6804 4.53125 73.0762 4.32292 72.5762 3.90625C72.0762 3.48958 71.8262 2.97917 71.8262 2.375ZM87.435 20.9375C85.6017 20.875 84.2162 20.4479 83.2787 19.6562C82.3412 18.8438 81.6642 17.9375 81.2475 16.9375C80.8308 15.9167 80.6225 14.8854 80.6225 13.8438C80.6225 12.7604 80.8204 11.7188 81.2162 10.7188C81.6329 9.69792 82.31 8.79167 83.2475 8C84.2058 7.1875 85.4142 6.77083 86.8725 6.75H96.9975C98.4558 6.77083 99.6537 7.1875 100.591 8C101.55 8.79167 102.227 9.69792 102.622 10.7188C103.039 11.7188 103.247 12.7604 103.247 13.8438C103.247 14.8854 103.039 15.9167 102.622 16.9375C102.206 17.9375 101.529 18.8438 100.591 19.6562C99.6537 20.4479 98.2683 20.875 96.435 20.9375H87.435ZM86.7475 10.9375C86.3517 10.9375 86.0079 11.1042 85.7162 11.4375C85.4246 11.75 85.2058 12.125 85.06 12.5625C84.935 12.9792 84.8725 13.3958 84.8725 13.8125C84.8725 14.25 84.935 14.6875 85.06 15.125C85.2058 15.5417 85.4246 15.9167 85.7162 16.25C86.0079 16.5625 86.3517 16.7292 86.7475 16.75H97.1225C97.5183 16.7292 97.8621 16.5625 98.1537 16.25C98.4454 15.9167 98.6537 15.5417 98.7787 15.125C98.9246 14.6875 98.9975 14.25 98.9975 13.8125C98.9975 13.3958 98.9246 12.9792 98.7787 12.5625C98.6537 12.125 98.4454 11.75 98.1537 11.4375C97.8621 11.1042 97.5183 10.9375 97.1225 10.9375H86.7475Z" fill="url(#paint0_linear_13_136)"/>
<defs>
<linearGradient id="paint0_linear_13_136" x1="-1" y1="12" x2="107" y2="12" gradientUnits="userSpaceOnUse">
<stop stop-color="#3994FF"/>
<stop offset="1" stop-color="#0E46D5"/>
</linearGradient>
</defs>
</svg>
